# xmcd CD database file
#
# Track frame offsets:
#	150
#	18155
#	42120
#	62795
#	83865
#	105422
#	128025
#	161562
#	184675
#	213095
#	239295
#	257995
#	279792
#
# Disc length: 3999 seconds
#
# Revision: 2
# Processed by: cddbd v1.5.2PL0 Copyright (c) Steve Scherf et al.
# Submitted via: CDex 1.70beta2
#
DISCID=a20f9d0d
DTITLE=Better Blues Bureau - Songs From the Better Blues Bureau
DYEAR=1900
DGENRE=
TTITLE0=Statesboro Blues
TTITLE1=Overtime
TTITLE2=Train Conductor
TTITLE3=Rollin' And Tumblin'
TTITLE4=Blues In My Soul
TTITLE5=Angeline
TTITLE6=Self Control
TTITLE7=Trouble In Paradise
TTITLE8=What Can I Do For Ya?
TTITLE9=Macon Blues
TTITLE10=Cross Cut Saw
TTITLE11=Overdrawn On Luck
TTITLE12=Seeds Of Soul
EXTD=
EXTT0=Pat Travers
EXTT1=Craig Erickson
EXTT2=Kevin Russell
EXTT3=L.A. Blues Authority
EXTT4=Blindside Blues Band
EXTT5=Tony Spinner
EXTT6=Howling Iguanas
EXTT7=Rick Derringer
EXTT8=Glenn Hughes
EXTT9=Outlaws
EXTT10=Leslie West
EXTT11=Dave Goodman
EXTT12=T. J. Parker
PLAYORDER=
